<?xml version="1.0" standalone="no"?>
<!DOCTYPE svg PUBLIC "-//W3C//DTD SVG 20010904//EN"
 "http://www.w3.org/TR/2001/REC-SVG-20010904/DTD/svg10.dtd">
<svg version="1.0" xmlns="http://www.w3.org/2000/svg"
 width="213.000000pt" height="213.000000pt" viewBox="0 0 213.000000 213.000000"
 preserveAspectRatio="xMidYMid meet">
<metadata>
Created by potrace 1.11, written by Peter Selinger 2001-2013
</metadata>
<g transform="translate(0.000000,213.000000) scale(0.100000,-0.100000)"
fill="#000000" stroke="none">
<path d="M502 2100 c3 -24 5 -25 88 -25 93 0 92 1 77 -65 -14 -62 -58 -255
-82 -360 -15 -63 -29 -124 -31 -135 -2 -11 -22 -96 -43 -189 l-39 -170 249
-400 249 -400 -39 -38 c-58 -55 -73 -147 -36 -218 18 -34 64 -77 98 -89 l27
-11 0 187 c0 175 -1 188 -22 222 -13 19 -27 44 -33 54 -5 9 -106 171 -223 360
l-214 342 41 180 c115 510 161 711 165 720 2 7 121 10 332 10 l329 0 12 -49
c7 -28 14 -61 17 -75 2 -15 25 -116 50 -226 52 -226 87 -375 111 -485 l17 -75
-177 -285 c-98 -157 -208 -334 -246 -395 l-69 -110 0 -187 c0 -104 2 -188 5
-188 18 0 66 34 93 64 69 79 61 192 -19 265 l-29 27 249 400 249 400 -45 195
c-24 106 -71 310 -103 453 -33 142 -58 261 -56 265 3 4 43 7 90 6 l86 -1 0 25
0 26 -565 0 -566 0 3 -25z"/>
<path d="M834 1682 c-166 -121 -210 -333 -107 -511 54 -92 165 -171 262 -187
l42 -7 -1 -186 c-1 -102 -1 -218 -1 -257 l1 -71 33 1 32 1 3 256 2 255 59 12
c66 14 161 70 205 123 16 19 43 63 60 99 28 59 31 74 31 160 0 87 -3 100 -33
161 -18 36 -49 82 -68 102 -113 116 -279 98 -314 -34 -6 -22 -10 -93 -10 -157
1 -64 1 -179 1 -256 l-1 -138 -32 6 c-93 18 -200 113 -237 209 -28 75 -23 166
12 239 25 52 79 111 122 135 14 8 16 16 8 38 -13 39 -23 40 -69 7z m442 -77
c45 -34 90 -107 105 -169 39 -162 -82 -349 -248 -382 l-31 -6 0 263 c1 149 5
273 11 285 22 50 103 54 163 9z"/>
</g>
</svg>
